<?xml version="1.0" standalone="no"?>
<!DOCTYPE svg PUBLIC "-//W3C//DTD SVG 1.1//EN" "http://www.w3.org/Graphics/SVG/1.1/DTD/svg11.dtd">
<svg xmlns="http://www.w3.org/2000/svg" width="1000" height="1000" viewBox="0 0 1000 1000" fill="none">
<path fill-rule="evenodd" clip-rule="evenodd" d="M136.751 175.005L136.73 175L25.0079 701.314C21.4411 714.873 21.0409 728.956 23.8369 742.667C26.6883 756.651 32.7991 769.93 41.7656 781.627C50.7321 793.325 62.3501 803.174 75.8523 810.525C89.3545 817.876 104.433 822.561 120.093 824.271C123.439 824.636 126.794 824.864 130.15 824.955V825H133.44H133.559H763.15C801.341 825 841.65 793 865.65 750.5C889.65 708 907.15 662.5 907.15 610C907.15 586.599 901.673 563.581 891.235 543.113C880.797 522.644 865.411 505.406 847.15 493L674.395 415.636C659.564 408.369 647.536 395.818 640.65 382C633.648 367.949 635.005 343.996 639.15 329.062C643.295 314.129 649.118 303.478 662.65 294C671.936 287.496 684.17 286.183 696.483 286H704.625C705.345 286.007 706.063 286.015 706.779 286.022C708.931 286.045 711.06 286.068 713.15 286.068V286H948.537L977.15 175H617.15C575.65 175 541.15 217 516.15 264C499.15 305.5 490.15 332.978 490.15 390C490.15 412.299 495.627 434.232 506.065 453.737C516.503 473.242 531.889 489.678 550.15 501.5L727.151 584.998L727.15 585C736.157 590.984 750.721 602.444 755.15 615C759.579 627.556 758.708 634.784 756.65 648.5C754.592 662.216 749.808 674.036 742.15 683C741.632 683.606 741.103 684.23 740.562 684.867L740.554 684.877C733.669 692.99 724.987 703.221 716.392 705H206.15C204.881 704.921 203.609 704.895 202.345 704.87C198.568 704.794 194.864 704.72 191.537 703.217C187.098 701.211 183.24 698.448 180.227 695.116C177.214 691.784 175.115 687.962 174.075 683.909C173.31 680.927 173.17 678.052 173.547 675.148L210.878 499.52L280.097 175H136.75L136.751 175.005ZM762.463 705C762.691 704.679 762.921 704.354 763.15 704.026V705H762.463ZM250.42 714.12H219.7L166.18 767.16L165.58 714.12H134.98L135.94 798H165.7L250.42 714.12ZM287.166 714.12H256.446L215.526 798H246.246L287.166 714.12ZM378.985 738.48L388.705 714H308.425C302.065 714 296.305 717.72 293.425 723.36L288.505 733.44L323.905 773.4H269.065L257.305 798H339.265C345.625 798 351.505 794.4 354.265 788.52L360.385 775.68L327.265 738.48H378.985ZM493.45 714.12H462.73L433.69 773.4H402.49L431.53 714.12H400.81L371.77 773.4L367.69 781.8C364.09 789.24 369.49 798 377.89 798H442.09C448.45 798 454.21 794.4 456.97 788.64L464.53 773.4L493.45 714.12ZM576.247 777.847L575.521 714.96V714H527.641L534.121 725.52L438.481 820.32H469.201L545.281 744.96L545.641 778.56V781.08H513.361L516.721 798.12H566.385H576.481H640.665L652.665 773.4H609.105L638.145 714H607.305L576.247 777.847ZM767.696 738.48L777.416 714H697.136C690.776 714 685.016 717.72 682.136 723.36L677.216 733.44L712.616 773.4H657.776L646.016 798H727.976C734.336 798 740.216 794.4 742.976 788.52L749.096 775.68L715.976 738.48H767.696Z" fill="black"/>
</svg>